<?xml version="1.0" encoding="UTF-8"?>
<svg width="500px" height="400px" viewBox="0 0 500 400" version="1.1" xmlns="http://www.w3.org/2000/svg" xmlns:xlink="http://www.w3.org/1999/xlink">
    <title>Digital Transformation Illustration</title>
    <defs>
        <linearGradient x1="0%" y1="0%" x2="100%" y2="100%" id="linearGradient-1">
            <stop stop-color="#FFFFFF" stop-opacity="0.2" offset="0%"></stop>
            <stop stop-color="#FFFFFF" stop-opacity="0.1" offset="100%"></stop>
        </linearGradient>
    </defs>
    <g stroke="none" stroke-width="1" fill="none" fill-rule="evenodd">
        <g transform="translate(50.000000, 50.000000)">
            <!-- Computer Screen -->
            <rect fill="#FFFFFF" x="0" y="0" width="300" height="200" rx="10"></rect>
            <rect fill="#F3F4F6" x="20" y="20" width="260" height="160" rx="5"></rect>
            
            <!-- Computer Stand -->
            <rect fill="#FFFFFF" x="120" y="200" width="60" height="20" rx="5"></rect>
            <rect fill="#FFFFFF" x="140" y="220" width="20" height="30" rx="2"></rect>
            <rect fill="#FFFFFF" x="100" y="250" width="100" height="10" rx="5"></rect>
            
            <!-- Website Elements -->
            <rect fill="#4361EE" x="40" y="40" width="220" height="30" rx="5"></rect>
            <rect fill="#FFFFFF" opacity="0.5" x="50" y="50" width="80" height="10" rx="2"></rect>
            <rect fill="#FFFFFF" opacity="0.5" x="150" y="50" width="40" height="10" rx="2"></rect>
            <rect fill="#FFFFFF" opacity="0.5" x="200" y="50" width="40" height="10" rx="2"></rect>
            
            <rect fill="#FFFFFF" x="40" y="90" width="100" height="70" rx="5"></rect>
            <rect fill="#FFFFFF" x="160" y="90" width="100" height="30" rx="5"></rect>
            <rect fill="#FFFFFF" x="160" y="130" width="100" height="30" rx="5"></rect>
            
            <!-- Floating Elements -->
            <circle fill="url(#linearGradient-1)" cx="350" cy="50" r="30"></circle>
            <circle fill="url(#linearGradient-1)" cx="380" cy="120" r="20"></circle>
            <circle fill="url(#linearGradient-1)" cx="330" cy="180" r="25"></circle>
            
            <!-- Connection Lines -->
            <path d="M300,100 C330,100 330,50 350,50" stroke="#FFFFFF" stroke-width="2" opacity="0.5"></path>
            <path d="M300,120 C330,120 350,120 380,120" stroke="#FFFFFF" stroke-width="2" opacity="0.5"></path>
            <path d="M300,140 C330,140 310,180 330,180" stroke="#FFFFFF" stroke-width="2" opacity="0.5"></path>
            
            <!-- Mobile Device -->
            <rect fill="#FFFFFF" x="350" y="200" width="80" height="140" rx="10"></rect>
            <rect fill="#F3F4F6" x="360" y="220" width="60" height="100" rx="5"></rect>
            <circle fill="#FFFFFF" cx="390" cy="330" r="8"></circle>
            
            <!-- Mobile Elements -->
            <rect fill="#4361EE" x="370" y="230" width="40" height="10" rx="2"></rect>
            <rect fill="#FFFFFF" opacity="0.7" x="370" y="250" width="40" height="20" rx="2"></rect>
            <rect fill="#FFFFFF" opacity="0.7" x="370" y="280" width="40" height="20" rx="2"></rect>
        </g>
    </g>
</svg>
