<?xml version="1.0" encoding="UTF-8"?>
<svg width="64px" height="64px" viewBox="0 0 64 64" version="1.1" xmlns="http://www.w3.org/2000/svg" xmlns:xlink="http://www.w3.org/1999/xlink">
    <title>Strategy Icon</title>
    <g stroke="none" stroke-width="1" fill="none" fill-rule="evenodd">
        <rect fill="#4361EE" opacity="0.1" x="0" y="0" width="64" height="64" rx="32"></rect>
        <g transform="translate(16.000000, 16.000000)" fill="#4361EE" fill-rule="nonzero">
            <path d="M16,0 C7.16,0 0,7.16 0,16 C0,24.84 7.16,32 16,32 C24.84,32 32,24.84 32,16 C32,7.16 24.84,0 16,0 Z M16,29.3333333 C8.64,29.3333333 2.66666667,23.36 2.66666667,16 C2.66666667,8.64 8.64,2.66666667 16,2.66666667 C23.36,2.66666667 29.3333333,8.64 29.3333333,16 C29.3333333,23.36 23.36,29.3333333 16,29.3333333 Z"></path>
            <path d="M17.3333333,8 L14.6666667,8 L14.6666667,17.3333333 L22.6666667,22.1333333 L24,20 L17.3333333,16 L17.3333333,8 Z"></path>
        </g>
    </g>
</svg>
