<?xml version="1.0" encoding="UTF-8"?>
<svg width="64px" height="64px" viewBox="0 0 64 64" version="1.1" xmlns="http://www.w3.org/2000/svg" xmlns:xlink="http://www.w3.org/1999/xlink">
    <title>E-Commerce Icon</title>
    <g stroke="none" stroke-width="1" fill="none" fill-rule="evenodd">
        <rect fill="#4361EE" opacity="0.1" x="0" y="0" width="64" height="64" rx="32"></rect>
        <g transform="translate(16.000000, 16.000000)" fill="#4361EE" fill-rule="nonzero">
            <path d="M9.33333333,24 C7.86666667,24 6.68,25.2 6.68,26.6666667 C6.68,28.1333333 7.86666667,29.3333333 9.33333333,29.3333333 C10.8,29.3333333 12,28.1333333 12,26.6666667 C12,25.2 10.8,24 9.33333333,24 Z M0,0 L0,2.66666667 L2.66666667,2.66666667 L7.46666667,12.9333333 L5.66666667,16.2666667 C5.46666667,16.6666667 5.33333333,17.1333333 5.33333333,17.6 C5.33333333,19.0666667 6.53333333,20.2666667 8,20.2666667 L24,20.2666667 L24,17.6 L8.56,17.6 C8.37333333,17.6 8.24,17.4666667 8.24,17.28 L8.26666667,17.1733333 L9.46666667,14.9333333 L19.3333333,14.9333333 C20.4,14.9333333 21.3333333,14.3333333 21.8666667,13.4666667 L26.6666667,5.06666667 C26.8666667,4.66666667 26.6666667,4.26666667 26.4,4 C26.1333333,3.73333333 25.7333333,3.6 25.3333333,3.6 L5.6,3.6 L4.37333333,1.33333333 L0,1.33333333 L0,0 Z M21.3333333,24 C19.8666667,24 18.68,25.2 18.68,26.6666667 C18.68,28.1333333 19.8666667,29.3333333 21.3333333,29.3333333 C22.8,29.3333333 24,28.1333333 24,26.6666667 C24,25.2 22.8,24 21.3333333,24 Z"></path>
        </g>
    </g>
</svg>
