<?xml version="1.0" encoding="UTF-8"?>
<svg width="64px" height="64px" viewBox="0 0 64 64" version="1.1" xmlns="http://www.w3.org/2000/svg" xmlns:xlink="http://www.w3.org/1999/xlink">
    <title>Webdesign Icon</title>
    <g stroke="none" stroke-width="1" fill="none" fill-rule="evenodd">
        <rect fill="#4361EE" opacity="0.1" x="0" y="0" width="64" height="64" rx="32"></rect>
        <g transform="translate(16.000000, 16.000000)" fill="#4361EE" fill-rule="nonzero">
            <path d="M30,0 L2,0 C0.9,0 0,0.9 0,2 L0,24 C0,25.1 0.9,26 2,26 L12,26 L12,30 L8,30 L8,32 L24,32 L24,30 L20,30 L20,26 L30,26 C31.1,26 32,25.1 32,24 L32,2 C32,0.9 31.1,0 30,0 Z M14,30 L18,30 L18,26 L14,26 L14,30 Z M30,24 L2,24 L2,2 L30,2 L30,24 Z"></path>
            <polygon points="12.7 14.7 14.1 16.1 19.1 11.1 24.1 16.1 25.5 14.7 19.1 8.3"></polygon>
            <polygon points="8.9 11.1 6.5 11.1 6.5 12.9 8.9 12.9 8.9 15.3 10.7 15.3 10.7 12.9 13.1 12.9 13.1 11.1 10.7 11.1 10.7 8.7 8.9 8.7"></polygon>
        </g>
    </g>
</svg>
